<svg xmlns="http://www.w3.org/2000/svg" xml:space="preserve" style="enable-background:new 0 0 511.999 511.999" viewBox="0 0 511.999 511.999">
	<path d="M404.121 52.066c-15.078-4.814-29.245-7.037-42.436-7.037-41.763 0-73.826 22.246-94.686 54.895-2.851 4.466-7.544 6.708-12.265 6.708a14.835 14.835 0 0 1-11.948-6.013c-23.062-30.875-54.038-55.037-95.835-55.037-12.086 0-25.079 2.02-39.045 6.482C22.932 79.249-65.995 260.291 247.94 464.579c2.449 1.595 5.256 2.391 8.062 2.391s5.613-.795 8.062-2.391C577.988 260.293 489.06 79.251 404.121 52.066z" style="fill:#d21e1e" />
	<path d="M510.383 152.815c-4.137-30.776-16.176-59.261-34.818-82.378-17.247-21.389-39.62-37.288-62.995-44.77-17.368-5.547-34.483-8.357-50.885-8.357-42.575 0-80.229 18.728-107.658 53.144-30.555-34.913-66.507-52.588-107.078-52.588-15.312 0-31.286 2.624-47.479 7.797-23.395 7.484-45.773 23.384-63.025 44.772-18.648 23.118-30.691 51.604-34.828 82.382-6.683 49.719 7.43 103.951 40.817 156.831 38.592 61.125 102.648 121.069 190.388 178.165a42.398 42.398 0 0 0 23.18 6.876 42.398 42.398 0 0 0 23.18-6.876c87.738-57.097 151.792-117.04 190.383-178.168 33.383-52.879 47.498-107.111 40.818-156.83zM256 466.971a14.75 14.75 0 0 1-8.062-2.391C-65.997 260.293 22.93 79.251 107.905 52.066c13.966-4.462 26.958-6.482 39.045-6.482 41.797 0 72.773 24.161 95.835 55.037a14.842 14.842 0 0 0 11.948 6.013c4.722 0 9.413-2.242 12.265-6.708 20.861-32.651 52.924-54.895 94.686-54.895 13.192 0 27.358 2.223 42.436 7.037 84.939 27.185 173.867 208.227-140.059 412.515a14.762 14.762 0 0 1-8.061 2.388z" />
</svg>